<?xml version="1.0" encoding="utf-8"?>
<!-- Generator: Adobe Illustrator 25.0.0, SVG Export Plug-In . SVG Version: 6.00 Build 0)  -->
<svg version="1.1" id="Layer_1" xmlns="http://www.w3.org/2000/svg" xmlns:xlink="http://www.w3.org/1999/xlink" x="0px" y="0px"
	 viewBox="0 0 138.65 12.56" style="enable-background:new 0 0 138.65 12.56;" xml:space="preserve">
<style type="text/css">
	.st0{fill:#273C93;}
</style>
<g>
	<path class="st0" d="M3.68,12.77c-3.2,0-3.8-1.88-3.66-4.02H2.6c0,1.18,0.05,2.17,1.47,2.17c0.87,0,1.3-0.56,1.3-1.4
		c0-2.23-5.21-2.36-5.21-6.04C0.17,1.54,1.1,0,4.24,0c2.52,0,3.77,1.13,3.59,3.71H5.32c0-0.92-0.16-1.87-1.2-1.87
		c-0.84,0-1.34,0.46-1.34,1.32c0,2.34,5.2,2.14,5.2,6.03C7.99,12.39,5.65,12.77,3.68,12.77"/>
	<path class="st0" d="M8.81,12.56L12.24,0.2h3.41L19,12.56h-2.72l-0.69-2.74h-3.53l-0.7,2.74H8.81z M13.79,2.58h-0.04l-1.18,5.34
		h2.46L13.79,2.58z"/>
	<polygon class="st0" points="20.07,12.56 20.07,0.2 24.23,0.2 26.16,8.61 26.2,8.61 28.25,0.2 32.28,0.2 32.28,12.56 29.76,12.56 
		29.76,3.03 29.72,3.03 27.35,12.56 24.88,12.56 22.62,3.03 22.59,3.03 22.59,12.56 	"/>
	<path class="st0" d="M37.64,12.77c-3.2,0-3.8-1.88-3.66-4.02h2.59c0,1.18,0.05,2.17,1.47,2.17c0.87,0,1.3-0.56,1.3-1.4
		c0-2.23-5.2-2.36-5.2-6.04c0-1.93,0.92-3.47,4.07-3.47c2.52,0,3.76,1.13,3.59,3.71h-2.52c0-0.92-0.15-1.87-1.2-1.87
		c-0.84,0-1.33,0.46-1.33,1.32c0,2.34,5.2,2.14,5.2,6.03C41.96,12.39,39.61,12.77,37.64,12.77"/>
	<path class="st0" d="M52.07,0.2v8.76c0,1.85-1.04,3.8-4.19,3.8c-2.84,0-4.21-1.47-4.21-3.8V0.2h2.58V8.8
		c0,1.53,0.65,2.12,1.59,2.12c1.13,0,1.64-0.75,1.64-2.12V0.2H52.07z"/>
	<polygon class="st0" points="54.1,12.56 54.1,0.2 57.6,0.2 60.88,8.76 60.92,8.76 60.92,0.2 63.33,0.2 63.33,12.56 59.93,12.56 
		56.55,3.53 56.52,3.53 56.52,12.56 	"/>
	<path class="st0" d="M71.06,4.01c0.02-1.15-0.17-2.16-1.54-2.16c-1.61,0-1.61,2.17-1.61,4.57c0,3.87,0.38,4.55,1.85,4.55
		c0.43,0,0.89-0.1,1.28-0.24V7.99h-1.4v-1.9h3.99v6.26c-0.7,0.14-2.46,0.41-3.49,0.41c-4.35,0-4.84-1.8-4.84-6.49
		C65.3,3.17,65.45,0,69.68,0c2.53,0,4.11,1.42,3.95,4.01H71.06z"/>
	<path class="st0" d="M79.55,0.2h4.31c3.39,0,4.02,2.26,4.02,6.11c0,1.9,0.29,6.25-4.13,6.25h-4.21V0.2z M82.13,10.66h1.25
		c1.57,0,1.88-1.18,1.88-4.28c0-2.28,0-4.28-1.8-4.28h-1.34V10.66z"/>
	<rect x="89.87" y="0.2" class="st0" width="2.59" height="12.36"/>
	<path class="st0" d="M97.89,12.77c-3.2,0-3.8-1.88-3.66-4.02h2.59c0,1.18,0.05,2.17,1.47,2.17c0.87,0,1.3-0.56,1.3-1.4
		c0-2.23-5.2-2.36-5.2-6.04c0-1.93,0.92-3.47,4.07-3.47c2.51,0,3.76,1.13,3.59,3.71h-2.52c0-0.92-0.15-1.87-1.2-1.87
		C97.5,1.85,97,2.31,97,3.17c0,2.34,5.2,2.14,5.2,6.03C102.21,12.39,99.86,12.77,97.89,12.77"/>
	<path class="st0" d="M103.98,0.2h4.66c2.36,0,3.29,1.44,3.29,3.7c0,1.4-0.41,3.63-3.44,3.63h-1.92v5.03h-2.58V0.2z M106.57,5.63
		h1.44c0.77,0,1.3-0.84,1.3-1.66c0-1.01-0.27-1.86-1.44-1.86h-1.3V5.63z"/>
	<polygon class="st0" points="113.41,12.56 113.41,0.2 116,0.2 116,10.51 119.87,10.51 119.87,12.56 	"/>
	<path class="st0" d="M119.97,12.56l3.42-12.36h3.4l3.35,12.36h-2.72l-0.68-2.74h-3.53l-0.7,2.74H119.97z M124.95,2.58h-0.03
		l-1.18,5.34h2.46L124.95,2.58z"/>
	<polygon class="st0" points="132.61,8.28 129.38,0.2 132.2,0.2 134.05,5.42 136.02,0.2 138.65,0.2 135.2,8.28 135.2,12.56 
		132.61,12.56 	"/>
</g>
</svg>
